<svg width="21" height="20" viewBox="0 0 21 20" fill="none" xmlns="http://www.w3.org/2000/svg">
<path d="M15.75 3.75V0H11.375C10.8542 0.0260417 10.4115 0.208333 10.0469 0.546875C9.70833 0.911458 9.52604 1.35417 9.5 1.875V13.125C9.52604 13.6458 9.70833 14.0885 10.0469 14.4531C10.4115 14.7917 10.8542 14.974 11.375 15H18.875C19.3958 14.974 19.8385 14.7917 20.2031 14.4531C20.5417 14.0885 20.724 13.6458 20.75 13.125V5H17.0391C16.6745 5 16.375 4.88281 16.1406 4.64844C15.8802 4.41406 15.75 4.11458 15.75 3.75ZM17 0V3.75H20.75L17 0ZM8.25 13.75V5H2.625C2.10417 5.02604 1.66146 5.20833 1.29688 5.54688C0.958333 5.91146 0.776042 6.35417 0.75 6.875V18.125C0.776042 18.6458 0.958333 19.0885 1.29688 19.4531C1.66146 19.7917 2.10417 19.974 2.625 20H10.125C10.6458 19.974 11.0885 19.7917 11.4531 19.4531C11.7917 19.0885 11.974 18.6458 12 18.125V16.25H10.75C10.0469 16.224 9.46094 15.9766 8.99219 15.5078C8.52344 15.0391 8.27604 14.4531 8.25 13.75Z" fill="#0041BF"/>
</svg>
