<svg width="20" height="20" viewBox="0 0 20 20" fill="none" xmlns="http://www.w3.org/2000/svg">
<path fill-rule="evenodd" clip-rule="evenodd" d="M19.3053 10.626C19.3053 9.94889 19.2446 9.29785 19.1317 8.67285H10.1387V12.3664H15.2776C15.0562 13.56 14.3835 14.5713 13.3722 15.2484V17.6442H16.4581C18.2637 15.9819 19.3053 13.534 19.3053 10.626Z" fill="#4285F4"/>
<path fill-rule="evenodd" clip-rule="evenodd" d="M10.1387 19.957C12.7168 19.957 14.8783 19.102 16.4581 17.6437L13.3722 15.2478C12.5172 15.8207 11.4234 16.1593 10.1387 16.1593C7.65171 16.1593 5.54668 14.4796 4.79581 12.2227H1.60571V14.6966C3.17689 17.8173 6.40605 19.957 10.1387 19.957Z" fill="#34A853"/>
<path fill-rule="evenodd" clip-rule="evenodd" d="M4.79581 12.223C4.60484 11.6501 4.49633 11.0381 4.49633 10.4088C4.49633 9.77945 4.60484 9.16748 4.79581 8.59456V6.12061H1.60571C0.959011 7.40967 0.590088 8.868 0.590088 10.4088C0.590088 11.9496 0.959011 13.4079 1.60571 14.697L4.79581 12.223Z" fill="#FBBC05"/>
<path fill-rule="evenodd" clip-rule="evenodd" d="M10.1387 4.65809C11.5406 4.65809 12.7993 5.13986 13.7889 6.08604L16.5276 3.34733C14.8739 1.80653 12.7125 0.860352 10.1387 0.860352C6.40605 0.860352 3.17689 3.00011 1.60571 6.12076L4.79581 8.59471C5.54668 6.33777 7.65171 4.65809 10.1387 4.65809Z" fill="#EA4335"/>
</svg>
