<svg width="19" height="17" viewBox="0 0 19 17" fill="none" xmlns="http://www.w3.org/2000/svg">
<path d="M13.6795 2.97656L18.0038 7.30078C18.2499 7.54688 18.4256 7.89844 18.4256 8.25C18.4256 8.63672 18.2499 8.98828 18.0038 9.23438L13.6795 13.5586C13.4686 13.7695 13.1522 13.875 12.8358 13.875C12.203 13.875 11.6756 13.3477 11.6756 12.7148V10.5H7.17564C6.54283 10.5 6.05064 10.0078 6.05064 9.375V7.125C6.05064 6.52734 6.54283 6 7.17564 6H11.6756V3.82031C11.6756 3.1875 12.203 2.625 12.8358 2.625C13.1522 2.625 13.4686 2.76562 13.6795 2.97656ZM6.05064 2.625H3.80064C3.16783 2.625 2.67564 3.15234 2.67564 3.75V12.75C2.67564 13.3828 3.16783 13.875 3.80064 13.875H6.05064C6.6483 13.875 7.17564 14.4023 7.17564 15C7.17564 15.6328 6.6483 16.125 6.05064 16.125H3.80064C1.93736 16.125 0.425641 14.6133 0.425641 12.75V3.75C0.425641 1.88672 1.93736 0.375 3.80064 0.375H6.05064C6.6483 0.375 7.17564 0.902344 7.17564 1.5C7.17564 2.13281 6.6483 2.625 6.05064 2.625Z" fill="#11083A"/>
</svg>
