<svg width="27" height="39" viewBox="0 0 27 39" fill="none" xmlns="http://www.w3.org/2000/svg">
<path d="M13.25 0.75C17.1836 0.75 20.375 3.94141 20.375 7.875V19.75C20.375 23.6836 17.1836 26.875 13.25 26.875C9.31641 26.875 6.125 23.6836 6.125 19.75V7.875C6.125 3.94141 9.31641 0.75 13.25 0.75ZM3.75 16.7812V19.75C3.75 25.0195 7.98047 29.25 13.25 29.25C18.4453 29.25 22.75 25.0195 22.75 19.75V16.7812C22.75 15.8164 23.4922 15 24.5312 15C25.4961 15 26.3125 15.8164 26.3125 16.7812V19.75C26.3125 26.4297 21.3398 31.8477 15.0312 32.7383V35.1875H18.5938C19.5586 35.1875 20.375 36.0039 20.375 36.9688C20.375 38.0078 19.5586 38.75 18.5938 38.75H13.25H7.90625C6.86719 38.75 6.125 38.0078 6.125 36.9688C6.125 36.0039 6.86719 35.1875 7.90625 35.1875H11.4688V32.7383C5.08594 31.8477 0.1875 26.4297 0.1875 19.75V16.7812C0.1875 15.8164 0.929688 15 1.96875 15C2.93359 15 3.75 15.8164 3.75 16.7812Z" fill="#11083A"/>
</svg>
