<svg width="12" height="9" viewBox="0 0 12 9" fill="none" xmlns="http://www.w3.org/2000/svg">
<path d="M6 6.75C2.67188 6.75 0 5.25 0 3.375C0 1.52344 2.67188 0 6 0C9.30469 0 12 1.52344 12 3.375C12 5.25 9.30469 6.75 6 6.75ZM2.01562 4.33594C2.29688 4.59375 2.67188 4.80469 3.07031 4.94531C3.84375 5.27344 4.875 5.4375 6 5.4375C7.10156 5.4375 8.13281 5.27344 8.92969 4.94531C9.30469 4.80469 9.67969 4.59375 9.96094 4.33594C10.2422 4.05469 10.5 3.67969 10.5 3.1875C10.5 2.71875 10.2422 2.34375 9.96094 2.0625C9.67969 1.80469 9.30469 1.59375 8.92969 1.42969C8.13281 1.125 7.10156 0.9375 6 0.9375C4.875 0.9375 3.84375 1.125 3.07031 1.42969C2.67188 1.59375 2.29688 1.80469 2.01562 2.0625C1.73438 2.34375 1.5 2.71875 1.5 3.1875C1.5 3.67969 1.73438 4.05469 2.01562 4.33594ZM2.25 3.1875C2.25 2.36719 3.91406 1.6875 6 1.6875C8.0625 1.6875 9.75 2.36719 9.75 3.1875C9.75 4.03125 8.0625 4.6875 6 4.6875C3.91406 4.6875 2.25 4.03125 2.25 3.1875ZM0 5.32031C0.304688 5.67188 0.679688 6 1.125 6.25781V7.75781C0.398438 7.26562 0 6.65625 0 6V5.32031ZM1.875 8.17969V6.67969C2.53125 6.98438 3.28125 7.21875 4.125 7.35938V8.85938C3.25781 8.71875 2.50781 8.48438 1.875 8.17969ZM4.875 8.95312V7.45312C5.22656 7.5 5.60156 7.52344 6 7.52344C6.375 7.52344 6.75 7.5 7.125 7.45312V8.95312C6.75 9 6.375 9 6 9C5.60156 9 5.22656 9 4.875 8.95312ZM7.875 8.85938V7.35938C8.69531 7.21875 9.44531 6.98438 10.125 6.67969V8.20312C9.46875 8.48438 8.71875 8.71875 7.875 8.85938ZM10.875 7.75781V6.25781C11.2969 6 11.6719 5.67188 12 5.32031V6C12 6.65625 11.5781 7.26562 10.875 7.75781Z" fill="#11083A"/>
</svg>
